<?xml version="1.0" standalone="no"?>
<!DOCTYPE svg PUBLIC "-//W3C//DTD SVG 20010904//EN"
 "http://www.w3.org/TR/2001/REC-SVG-20010904/DTD/svg10.dtd">
<svg version="1.0" xmlns="http://www.w3.org/2000/svg"
 width="1080.000000pt" height="1920.000000pt" viewBox="0 0 1080.000000 1920.000000"
 preserveAspectRatio="xMidYMid meet">

<g transform="translate(0.000000,1920.000000) scale(0.100000,-0.100000)"
fill="#000000" stroke="none">
<path d="M7850 13733 c-176 -29 -377 -178 -430 -319 -84 -224 -22 -461 159
-605 122 -98 301 -133 469 -94 149 35 306 154 365 276 64 130 69 227 23 375
-70 219 -277 377 -490 373 -39 -1 -82 -4 -96 -6z m161 -860 c52 -52 -11 -103
-128 -103 -85 0 -138 15 -170 46 -29 29 -24 40 31 65 34 16 59 19 143 17 90
-3 105 -6 124 -25z"/>
<path d="M5486 13522 c-7 -11 16 -22 46 -22 11 0 18 5 16 13 -5 15 -54 22 -62
9z"/>
<path d="M4730 13335 c-201 -23 -412 -50 -470 -58 -172 -26 -573 -76 -747 -92
-440 -41 -595 -116 -703 -340 -53 -110 -63 -178 -55 -360 13 -301 72 -816 116
-1025 44 -204 131 -371 332 -638 63 -83 70 -96 61 -120 -5 -15 -58 -68 -124
-123 -189 -158 -264 -248 -339 -410 -88 -189 -140 -394 -163 -636 -24 -260 45
-604 166 -828 25 -47 46 -95 46 -108 0 -13 -20 -59 -45 -102 -71 -125 -80
-161 -80 -310 l0 -130 41 -85 c69 -142 131 -199 266 -244 79 -27 99 -28 848
-41 162 -3 313 -10 334 -15 55 -12 106 -66 113 -118 5 -34 1 -49 -21 -82 -14
-22 -40 -47 -58 -56 -43 -22 -226 -33 -588 -34 -313 -1 -516 -11 -596 -31
-166 -41 -261 -132 -320 -306 -34 -100 -36 -249 -5 -339 40 -112 122 -219 206
-269 88 -51 128 -55 729 -65 406 -8 566 -14 584 -23 42 -20 67 -73 66 -142 -1
-70 -15 -102 -52 -117 -17 -7 -212 -14 -532 -19 -278 -4 -539 -12 -580 -18
-219 -30 -352 -133 -421 -326 -16 -46 -21 -84 -22 -165 0 -132 15 -188 88
-308 30 -50 55 -100 55 -110 0 -10 -25 -52 -56 -93 -74 -98 -176 -310 -205
-424 -19 -77 -23 -114 -22 -255 1 -174 13 -243 63 -372 l23 -58 -27 -47 c-97
-177 -101 -188 -105 -327 -3 -118 -1 -135 24 -213 20 -61 41 -100 76 -145 28
-34 49 -71 49 -84 0 -13 -16 -63 -36 -111 -65 -156 -61 -263 16 -434 53 -118
58 -157 30 -234 -114 -313 -115 -318 -115 -635 l0 -265 34 -100 c109 -327 268
-516 515 -615 124 -50 197 -63 326 -57 195 8 301 55 474 215 56 50 107 92 115
92 8 0 53 -38 100 -84 89 -87 160 -130 260 -160 142 -42 287 8 412 141 110
118 175 243 224 434 23 90 28 131 32 300 5 164 3 209 -12 275 -21 97 -73 246
-119 346 -19 41 -38 91 -41 111 -6 33 -4 40 28 72 45 45 73 45 129 0 168 -135
258 -175 394 -175 154 0 252 39 355 140 50 49 76 86 106 150 71 149 78 179 75
322 -2 113 0 127 15 132 10 3 205 8 433 11 456 7 552 14 647 46 73 24 187 97
267 170 150 137 277 374 316 589 17 93 14 311 -5 403 -20 99 -63 219 -114 324
-22 46 -43 93 -46 105 -4 16 12 61 48 138 103 219 122 309 122 570 -1 207 -7
238 -87 433 l-41 97 28 53 c98 185 90 160 90 297 0 117 -2 129 -30 190 -16 36
-57 105 -92 154 -35 48 -63 96 -63 105 0 10 20 46 45 82 218 316 320 624 301
914 -16 243 -92 479 -222 691 -24 39 -44 77 -44 86 0 20 33 48 114 97 97 58
155 110 220 194 99 130 173 317 206 520 32 201 90 782 90 901 0 169 -37 276
-129 377 -130 144 -234 175 -881 259 -168 21 -363 48 -435 60 -153 24 -157 25
-565 85 -173 25 -359 51 -413 57 -55 6 -101 17 -103 23 -3 6 8 42 25 81 94
224 111 268 130 337 34 118 50 228 61 406 12 186 5 346 -41 861 -33 371 -125
545 -344 646 -57 27 -68 28 -225 30 -140 2 -220 -4 -530 -41z m691 -162 c58
-6 67 -10 109 -52 25 -25 56 -68 69 -96 72 -154 149 -792 138 -1140 -9 -266
-49 -439 -151 -645 -85 -173 -214 -311 -420 -449 -215 -145 -347 -189 -736
-248 l-35 -5 50 -20 c199 -79 420 -336 518 -603 52 -142 60 -189 59 -375 0
-250 -19 -343 -104 -514 -110 -219 -236 -353 -427 -454 l-92 -49 154 -7 c279
-12 347 -27 416 -97 56 -55 84 -124 89 -217 4 -78 3 -86 -29 -150 -20 -41 -56
-90 -91 -125 -32 -32 -58 -63 -58 -69 0 -6 16 -28 35 -49 75 -83 134 -248 156
-429 13 -120 7 -226 -21 -336 -30 -117 -69 -191 -149 -283 -78 -90 -77 -87
-26 -156 79 -108 143 -253 182 -414 22 -94 25 -121 20 -231 -5 -133 -27 -224
-88 -358 -46 -102 -127 -199 -219 -262 -110 -75 -190 -106 -302 -116 -38 -4
-68 -10 -68 -13 0 -3 24 -19 54 -34 69 -36 238 -202 299 -295 63 -94 130 -237
162 -347 39 -130 46 -308 16 -425 -28 -113 -86 -227 -166 -325 -35 -44 -65
-87 -65 -95 0 -8 26 -40 58 -70 73 -69 96 -127 94 -243 -1 -98 -14 -138 -65
-206 l-40 -54 29 -20 c99 -70 184 -201 184 -284 0 -96 -50 -197 -134 -271 -43
-37 -139 -70 -234 -78 -40 -4 -75 -10 -77 -14 -3 -4 26 -30 64 -59 145 -107
191 -164 272 -336 103 -219 122 -439 58 -680 -44 -170 -107 -293 -191 -375
-75 -74 -109 -90 -190 -90 -80 0 -132 24 -184 83 -83 94 -83 155 -3 392 51
151 61 192 62 255 4 155 -74 248 -146 176 -37 -37 -101 -169 -150 -311 -97
-278 -147 -367 -284 -508 -204 -209 -560 -189 -778 44 -67 71 -110 134 -150
222 -54 117 -67 190 -72 402 -7 279 24 419 147 664 33 66 60 126 60 133 0 7
-27 41 -60 75 -81 85 -101 128 -108 229 -9 152 29 234 140 299 56 34 73 38
163 46 55 4 150 9 210 9 129 2 211 12 179 23 -11 4 -136 20 -277 36 -230 26
-263 32 -320 58 -69 33 -144 110 -172 176 -18 43 -20 159 -4 208 23 68 92 156
152 195 67 43 72 66 28 116 -137 159 -172 407 -95 678 53 184 119 290 293 473
87 91 111 121 100 128 -8 5 -20 9 -27 9 -8 0 -39 7 -69 16 -116 34 -186 149
-187 305 0 77 3 93 32 151 33 68 70 102 146 133 58 25 277 34 767 35 l426 0
59 38 c104 68 154 159 154 281 0 142 -67 270 -171 330 l-51 29 -576 5 c-397 3
-589 8 -615 16 -53 17 -98 60 -138 133 -32 60 -34 68 -34 163 0 87 3 107 26
155 33 70 70 107 139 138 53 24 66 25 345 33 160 4 413 8 563 8 l273 1 60 31
c79 39 144 105 161 161 7 23 13 86 13 138 0 82 -4 102 -26 150 -60 125 -138
179 -279 191 -47 4 -258 8 -470 9 -418 1 -619 11 -674 34 -42 17 -88 78 -117
155 -31 83 -24 205 16 280 35 63 116 138 165 151 19 5 142 12 272 16 130 4
242 10 249 15 10 6 10 18 1 59 -19 83 -14 259 13 440 62 416 83 593 90 770 4
82 2 141 -4 149 -14 22 -73 1 -163 -57 -139 -92 -201 -207 -218 -410 -10 -126
-7 -153 41 -332 54 -200 59 -223 59 -294 0 -112 -42 -174 -150 -223 -91 -41
-144 -43 -196 -5 -104 76 -186 230 -243 457 -77 306 -37 682 102 976 89 185
187 300 376 436 80 58 229 133 265 133 19 0 66 21 66 30 0 11 -42 45 -125 100
-104 69 -200 162 -286 277 -172 228 -241 457 -274 908 -8 116 -20 260 -26 320
-7 61 -12 187 -13 280 -1 158 1 174 23 222 30 68 92 125 167 153 90 34 229 55
720 110 488 54 672 77 889 111 129 19 397 45 506 48 25 0 75 -2 110 -6z m364
-2378 c77 -8 183 -21 235 -30 52 -8 214 -33 360 -55 146 -22 290 -44 320 -50
30 -5 204 -25 385 -45 768 -83 868 -113 949 -284 31 -66 31 -66 30 -226 -2
-214 -68 -773 -109 -930 -23 -87 -92 -243 -130 -295 -46 -63 -141 -151 -199
-185 -102 -60 -169 -77 -321 -82 -156 -6 -209 4 -314 57 -88 44 -189 155 -286
314 l-17 28 -43 -89 c-23 -49 -59 -114 -79 -144 l-36 -54 127 -16 c194 -24
324 -50 368 -72 157 -78 311 -207 421 -353 122 -162 211 -408 230 -639 8 -98
-16 -271 -52 -382 -31 -93 -92 -223 -141 -302 -80 -125 -279 -313 -378 -357
-43 -19 -96 -57 -70 -51 64 17 92 17 165 2 44 -9 100 -27 124 -41 57 -32 128
-105 163 -169 24 -42 28 -62 28 -125 0 -65 -5 -85 -32 -140 -18 -36 -53 -88
-78 -117 -25 -28 -45 -58 -45 -66 0 -8 29 -79 64 -158 98 -221 101 -233 101
-449 0 -169 -2 -191 -24 -250 -44 -122 -115 -249 -183 -328 -15 -18 -28 -39
-28 -46 0 -7 21 -48 48 -92 136 -227 195 -415 195 -619 0 -139 -17 -222 -66
-329 -99 -213 -241 -353 -417 -412 l-85 -28 -560 -4 c-615 -4 -820 5 -884 38
-67 34 -126 117 -165 234 -15 45 -15 53 0 105 38 131 112 227 197 251 29 8
226 14 629 20 l587 8 53 24 c104 48 164 140 175 266 14 171 -42 290 -173 370
l-49 30 -560 7 c-308 3 -587 11 -620 16 -75 13 -116 40 -159 104 -43 64 -66
142 -66 225 0 54 6 78 30 127 40 81 104 148 155 163 26 7 234 15 615 22 525
10 579 12 626 30 70 25 137 87 171 156 25 51 28 68 28 157 0 91 -3 106 -31
166 -33 70 -82 118 -164 160 l-45 24 -565 6 c-613 7 -634 9 -706 64 -38 29
-67 71 -115 165 -30 60 -30 60 -15 118 34 132 119 258 194 284 27 9 110 13
304 13 148 0 268 3 268 6 0 4 -57 49 -127 102 -71 52 -156 121 -190 152 -79
71 -191 237 -231 341 -72 187 -97 415 -68 612 42 286 127 469 306 655 47 49
86 92 88 96 1 3 -28 17 -65 30 -263 93 -426 232 -532 454 -67 138 -76 188 -75
387 0 96 8 240 17 320 9 80 26 235 37 345 37 362 60 516 85 571 42 94 123 166
215 190 58 16 42 16 205 -1z m-702 -281 c-1 -10 -9 -80 -17 -154 -9 -74 -17
-150 -18 -169 -2 -19 -7 -36 -13 -37 -5 -2 -25 21 -43 51 -18 30 -62 93 -97
141 -36 48 -65 90 -65 93 0 4 33 18 73 30 39 13 92 34 117 47 51 26 66 25 63
-2z m67 -1751 c65 -87 222 -238 301 -288 38 -25 69 -49 69 -53 0 -5 -14 -29
-32 -53 -116 -161 -216 -471 -233 -724 -17 -259 67 -535 250 -818 31 -47 54
-90 51 -95 -3 -5 -28 -12 -55 -14 -112 -11 -254 -120 -320 -247 l-34 -65 -12
40 c-13 44 -58 136 -86 176 -25 35 -24 39 14 100 39 61 86 173 119 285 21 70
23 97 22 268 -1 210 -21 343 -70 460 -51 120 -51 116 -11 181 62 103 81 173
81 304 1 114 0 117 -37 192 -29 60 -54 92 -119 153 -45 43 -101 87 -125 98
-24 12 -43 25 -43 29 0 5 25 41 55 81 31 39 68 96 82 126 l27 54 31 -66 c17
-36 51 -91 75 -124z m108 -2902 c73 -73 170 -117 312 -141 37 -7 279 -15 575
-20 331 -5 523 -12 547 -19 54 -17 68 -43 68 -129 0 -71 -1 -74 -37 -112 l-38
-39 -565 -10 c-321 -6 -587 -14 -615 -21 -201 -43 -336 -195 -375 -423 -35
-199 78 -434 250 -522 122 -62 140 -63 757 -74 373 -7 570 -14 583 -21 29 -16
42 -55 43 -130 0 -78 -20 -122 -66 -147 -27 -14 -77 -18 -327 -24 -162 -4
-421 -8 -575 -8 -305 -1 -314 -3 -428 -63 -120 -64 -216 -212 -237 -365 -11
-81 -9 -104 21 -253 l11 -55 -54 -48 c-60 -53 -127 -102 -132 -96 -2 2 3 45
11 94 25 158 -3 395 -52 435 -17 14 -20 41 -6 56 24 24 113 221 137 300 35
119 44 306 20 444 -32 181 -90 325 -202 503 -27 42 -61 96 -76 120 -36 56 -34
69 9 92 47 25 162 142 219 221 96 134 164 319 164 445 0 32 2 59 5 59 2 0 26
-22 53 -49z m367 -2722 c57 -27 130 -105 163 -177 24 -50 27 -72 30 -173 3
-101 1 -123 -18 -166 -25 -59 -106 -141 -174 -177 -43 -23 -61 -26 -151 -26
-95 0 -104 2 -147 29 -79 50 -166 177 -187 273 -13 57 8 161 50 246 44 90 87
128 194 174 60 25 183 24 240 -3z"/>
<path d="M4885 12464 c-49 -7 -166 -20 -260 -29 -282 -26 -1008 -128 -1049
-147 -22 -10 -26 -18 -26 -57 0 -55 52 -362 80 -476 28 -114 74 -198 152 -281
76 -80 124 -109 264 -160 l99 -36 200 -2 200 -1 100 39 c195 75 319 155 392
251 54 72 114 203 129 284 30 154 16 529 -22 603 -14 27 -17 28 -92 27 -42 -1
-117 -8 -167 -15z m44 -200 c23 -17 23 -18 19 -188 l-4 -171 -41 -85 c-109
-223 -257 -314 -555 -339 -250 -21 -379 19 -488 153 -72 88 -104 174 -130 347
-16 106 -10 132 32 152 38 18 450 78 833 122 77 9 149 17 160 19 64 10 152 5
174 -10z"/>
<path d="M4226 9903 c-6 -18 -91 -700 -98 -782 l-4 -43 60 7 c144 16 249 92
317 230 30 62 34 79 37 170 4 90 2 107 -18 146 -60 117 -134 197 -252 268 -34
20 -37 20 -42 4z"/>
<path d="M3666 4670 c-238 -85 -353 -309 -279 -544 22 -70 49 -113 107 -174
63 -66 107 -92 214 -127 78 -25 91 -27 225 -23 188 6 226 19 317 105 49 46 80
85 102 131 32 64 33 71 33 187 0 117 -1 122 -34 188 -54 107 -157 190 -306
247 -90 34 -296 39 -379 10z m329 -202 c56 -29 109 -78 131 -120 8 -15 17 -54
20 -86 9 -80 -20 -146 -92 -212 -64 -58 -128 -76 -233 -65 -88 8 -157 43 -226
113 -71 72 -92 132 -76 217 12 63 36 103 83 136 58 41 96 49 223 46 107 -2
126 -6 170 -29z"/>
<path d="M3473 2463 c-17 -6 -16 -38 1 -72 25 -48 29 -120 11 -206 -15 -73
-32 -118 -111 -305 -25 -59 -27 -77 -28 -190 l-1 -125 49 -32 c108 -73 167
-26 244 197 72 207 149 385 222 510 33 56 59 85 131 141 49 39 89 75 89 80 0
9 -584 12 -607 2z"/>
<path d="M5846 10085 c-6 -16 -18 -107 -41 -310 -15 -134 -20 -300 -9 -352 10
-50 74 -123 139 -160 59 -33 62 -34 162 -31 94 3 104 5 144 33 62 44 96 92
113 160 27 107 57 327 63 460 l6 130 -204 29 c-112 15 -233 34 -269 42 -83 17
-97 17 -104 -1z m287 -234 c32 -12 33 -24 12 -147 -22 -127 -71 -281 -94 -293
-19 -11 -75 0 -118 21 -22 11 -23 17 -23 132 1 134 14 255 31 288 10 19 17 20
88 15 43 -3 89 -11 104 -16z"/>
<path d="M6996 9912 c-14 -42 -34 -352 -27 -412 9 -79 26 -114 84 -167 56 -52
106 -68 182 -58 74 9 126 54 167 145 56 123 95 359 69 409 -17 30 -38 37 -236
71 -205 35 -232 37 -239 12z m188 -208 c23 -23 21 -137 -4 -191 -16 -36 -24
-43 -48 -43 -47 0 -54 19 -51 121 4 81 7 93 28 110 28 23 54 24 75 3z"/>
<path d="M6415 8031 c-33 -9 -82 -30 -108 -46 -65 -37 -170 -144 -207 -208
-29 -50 -30 -57 -30 -172 0 -139 9 -166 86 -260 120 -146 204 -188 408 -201
122 -8 193 7 283 61 71 42 164 133 199 195 66 115 72 259 15 374 -58 118 -218
236 -359 265 -78 16 -217 12 -287 -8z m247 -182 c93 -23 196 -131 206 -215 4
-36 -1 -56 -27 -109 -60 -122 -161 -179 -316 -179 -69 0 -100 5 -136 21 -128
57 -220 204 -190 304 22 74 121 149 231 177 82 21 149 21 232 1z"/>
<path d="M6506 7676 c-45 -17 -106 -72 -106 -97 0 -10 20 -34 45 -54 39 -32
54 -38 110 -42 77 -7 113 6 155 54 37 42 37 53 3 88 -56 55 -139 76 -207 51z"/>
<path d="M5361 5569 c-18 -20 -55 -118 -47 -126 2 -3 28 7 58 21 29 13 77 32
107 42 51 16 53 18 30 27 -13 6 -48 20 -77 33 -52 23 -52 23 -71 3z"/>
<path d="M5300 4258 c0 -19 5 -23 30 -23 17 0 30 1 30 2 0 1 -13 11 -30 23
l-30 21 0 -23z"/>
<path d="M5528 4163 c6 -2 18 -2 25 0 6 3 1 5 -13 5 -14 0 -19 -2 -12 -5z"/>
</g>
</svg>
